<?xml version="1.0" encoding="utf-8"?>
<!-- Svg Vector Icons : http://www.onlinewebfonts.com/icon -->
<!DOCTYPE svg PUBLIC "-//W3C//DTD SVG 1.1//EN" "http://www.w3.org/Graphics/SVG/1.1/DTD/svg11.dtd">
<svg version="1.1"
    xmlns="http://www.w3.org/2000/svg"
    xmlns:xlink="http://www.w3.org/1999/xlink" width="40px" height="40px" fill="#AB7C94" x="0px" y="0px" viewBox="0 0 1000 1000" enable-background="new 0 0 1000 1000" xml:space="preserve">
    <metadata> Svg Vector Icons : http://www.onlinewebfonts.com/icon </metadata>
    <g>
        <g transform="translate(0.000000,511.000000) scale(0.100000,-0.100000)">
            <path d="M1611.3,4685.1c-385.5-71-700-237.8-983.8-525.5c-247.4-249.3-404.7-527.4-492.9-876.4c-32.6-122.7-34.5-283.8-34.5-2098.1c0-2176.7-7.7-2042.4,126.6-2376.1c170.7-429.6,552.3-820.8,978.1-1001.1c280-118.9,387.4-138.1,886-147.7l454.5-7.7v-947.4c0-1037.5,0-1029.9,113.1-1125.8c71-57.5,163-80.5,264.7-61.4c65.2,11.5,199.4,138.1,1137.2,1074l1064.4,1062.4l1620.5,7.7c1772.1,5.8,1685.8,0,1992.6,120.8c464.1,184.1,861.1,581.1,1045.2,1045.2c122.7,314.5,117,195.6,117,2357c0,1814.2-1.9,1975.3-34.5,2098.1c-88.2,349-245.5,627.1-492.9,876.4c-247.4,251.2-504.4,400.8-861.1,502.5l-145.7,42.2l-3308.2,3.8C2403.3,4710,1722.5,4706.2,1611.3,4685.1z M8327.4,4071.4c452.6-94,845.7-487.1,939.7-939.7c42.2-201.4,42.2-3695.6,0-3891.2c-72.9-349-326-675.1-644.4-832.3c-283.8-141.9-228.2-138.1-2088.5-138.1H4875.4l-857.3-857.3l-859.2-859.2v859.2v857.3h-675.1c-774.8,0-847.7,9.6-1106.6,138.1c-320.3,157.2-571.5,481.3-644.4,830.4c-42.2,199.4-42.2,3693.7,0,3893.1c94,450.7,481.4,841.9,930.1,937.8C1854.9,4111.7,8131.8,4111.7,8327.4,4071.4z"/>
            <path d="M4954,3137.4c-15.3-24.9-120.8-276.2-234-561.9c-113.1-283.8-220.5-540.8-239.7-567.7c-69-97.8-122.7-109.3-767.1-153.4c-650.1-44.1-692.3-53.7-619.4-134.2c19.2-23,232.1-203.3,469.9-402.7c239.7-199.4,446.8-381.6,462.2-404.7c65.2-99.7,59.4-143.8-90.1-740.3C3857-145.8,3791.8-423.9,3791.8-445c0-21.1,13.4-44.1,28.8-49.9c19.2-7.7,234,117,560,320.3c489,306.9,537,331.8,619.4,331.8s130.4-24.9,619.4-331.8c326-203.3,540.8-327.9,560-320.3c15.3,5.8,28.8,28.8,28.8,51.8c0,21.1-65.2,301.1-145.8,621.4c-143.8,563.8-145.8,581.1-120.8,663.6c24.9,76.7,69,118.9,462.2,448.8c239.7,201.4,460.3,387.4,489,416.2c94,95.9,63.3,103.6-607.9,149.6c-642.5,44.1-698.1,53.7-765.2,151.5c-19.2,26.8-126.6,283.8-239.7,567.7c-207.1,519.7-245.5,604.1-280,604.1C4990.4,3179.6,4969.3,3160.5,4954,3137.4z"/>
        </g>
    </g>
</svg>